<svg xmlns="http://www.w3.org/2000/svg" id="Layer_1" viewBox="0 0 256 256" width="256" height="256"><defs><style>.cls-1{fill:#fff}</style></defs><path d="M236.76 64.86a13.31 13.31 0 0 0-13.24 13.24 13.71 13.71 0 0 0 6.37 11.46l-8.4 26.44a33.88 33.88 0 0 0-4.33-1l-5.35-20.37a13.39 13.39 0 1 0-6.36 1.53h.25l5.09 19.09c-8.4 2-15.27 9.93-21.64 17.06-6.87 7.64-14 15.78-22.4 17.06-2-22.92-9.68-41-22.92-54-21.38-20.83-49.13-20.58-50.15-20.58a60.19 60.19 0 0 0-60.08 60.08 43.13 43.13 0 0 0 12.47 30.3C25.19 171.28 12 178.41 6.61 186.05a3.22 3.22 0 0 0 2.55 5.09H222.5a3.26 3.26 0 0 0 3.06-2.8 3.31 3.31 0 0 0-2.29-3.57c-5.35-1.52-13.75-5.34-15.53-8.91a2.11 2.11 0 0 1 0-1.78c.76-1.78 3.82-5.6 7.13-9.42 8.65-10.18 20.36-24.44 18.84-35.64a14.3 14.3 0 0 0-6.62-10.19h-.26l8.91-27.49h1a13.24 13.24 0 1 0 0-26.48zm-38.44 18.08a7.11 7.11 0 0 1 7.13-7.13 7 7 0 1 1 0 14 7.06 7.06 0 0 1-7.13-6.87zM93.43 81.41c2.29 0 27 .51 45.57 18.84 13.75 13.49 20.87 33.35 21.64 58.81h-48.88a42.91 42.91 0 0 0 7.38-23.93 26 26 0 0 0-51.94 0 3.1 3.1 0 0 0 3.06 3.05 3.27 3.27 0 0 0 3-3.05 19.61 19.61 0 1 1 39.21 0 36.66 36.66 0 0 1-73.32 0 54.33 54.33 0 0 1 54.28-53.72zM227.6 130c1.27 8.65-9.93 21.89-17.32 30.8-3.82 4.59-6.87 8.15-7.89 10.7a7.81 7.81 0 0 0 0 7.12 17.12 17.12 0 0 0 5.86 6.37H16.79c6.88-5.09 18.84-10.18 34.88-14.51a42.67 42.67 0 0 0 54.74-5.09h57.28a3.1 3.1 0 0 0 3.06-3.06 52 52 0 0 0-.26-6.36c10.95-1.53 19.35-10.95 27-19.35 11.2-12.73 18.59-19.86 30-12.22a7 7 0 0 1 4.11 5.6zm9.16-44.81a7.12 7.12 0 0 1-7.13-7.13 7.13 7.13 0 0 1 14.26 0 7.12 7.12 0 0 1-7.13 7.17z" class="cls-1"/></svg>